<mxfile host="www.draw.io" modified="2020-03-10T13:36:19.605Z" agent="Mozilla/5.0 (Windows NT 10.0; WOW64) AppleWebKit/537.36 (KHTML, like Gecko) Chrome/79.0.3945.88 Safari/537.36" etag="OwnCFoadKbnMe_b76mgP" version="12.8.2" type="github">
  <diagram name="Page-1" id="5348f1db-0dfa-24cf-5d06-2057accb5106">
    <mxGraphModel dx="782" dy="388" grid="0" gridSize="10" guides="1" tooltips="1" connect="1" arrows="1" fold="1" page="1" pageScale="1.5" pageWidth="826" pageHeight="1169" background="#ffffff" math="0" shadow="0">
      <root>
        <mxCell id="0" style=";html=1;" />
        <mxCell id="1" style=";html=1;" parent="0" />
        <mxCell id="55dd390204d0f602-3" value="" style="whiteSpace=wrap;html=1;rounded=0;shadow=0;dashed=0;strokeColor=none;strokeWidth=4;fillColor=#08585C;gradientColor=none;fontFamily=Helvetica;fontSize=100;fontColor=#FFFFFF;align=center;" parent="1" vertex="1">
          <mxGeometry x="90" y="250" width="880" height="1280" as="geometry" />
        </mxCell>
        <mxCell id="55dd390204d0f602-1" value="TITLE" style="whiteSpace=wrap;html=1;rounded=0;shadow=0;dashed=0;strokeColor=none;strokeWidth=4;fillColor=#333333;gradientColor=none;fontFamily=Helvetica;fontSize=100;fontColor=#FFFFFF;align=center;" parent="1" vertex="1">
          <mxGeometry x="200" y="80" width="880" height="200" as="geometry" />
        </mxCell>
        <mxCell id="55dd390204d0f602-2" value="" style="ellipse;whiteSpace=wrap;html=1;rounded=0;shadow=0;dashed=0;strokeColor=#FEF15B;strokeWidth=4;fillColor=none;gradientColor=none;fontFamily=Helvetica;fontSize=100;fontColor=#FFFFFF;align=center;" parent="1" vertex="1">
          <mxGeometry x="260" y="330" width="200" height="200" as="geometry" />
        </mxCell>
        <mxCell id="55dd390204d0f602-4" value="" style="ellipse;whiteSpace=wrap;html=1;rounded=0;shadow=0;dashed=0;strokeColor=none;strokeWidth=4;fillColor=#F49731;gradientColor=none;fontFamily=Helvetica;fontSize=100;fontColor=#FFFFFF;align=center;" parent="1" vertex="1">
          <mxGeometry x="275" y="345" width="170" height="170" as="geometry" />
        </mxCell>
        <mxCell id="55dd390204d0f602-5" value="" style="endArrow=none;html=1;dashed=1;dashPattern=1 1;labelBackgroundColor=none;strokeColor=#F49731;fontFamily=Helvetica;fontSize=100;fontColor=#FFFFFF;strokeWidth=16;" parent="1" edge="1">
          <mxGeometry width="50" height="50" relative="1" as="geometry">
            <mxPoint x="269.5882352941177" y="580" as="sourcePoint" />
            <mxPoint x="1029" y="580" as="targetPoint" />
          </mxGeometry>
        </mxCell>
        <mxCell id="55dd390204d0f602-6" value="STAGE 1" style="whiteSpace=wrap;html=1;rounded=0;shadow=0;dashed=0;strokeColor=none;strokeWidth=4;fillColor=#F49731;gradientColor=none;fontFamily=Helvetica;fontSize=30;fontColor=#FFFFFF;align=center;fontStyle=1" parent="1" vertex="1">
          <mxGeometry x="660" y="320" width="240" height="60" as="geometry" />
        </mxCell>
        <mxCell id="55dd390204d0f602-8" value="Lorem ipsum dolor sit amet, consectetur adipisicing elit, sed do eiusmod tempor incididunt ut labore et dolore magna aliqua. Ut enim ad minim veniam, quis nostrud exercitation ullamco laboris nisi ut aliquip ex ea commodo consequat. Duis aute irure dolor in reprehenderit in voluptate velit esse cillum dolore eu fugiat nulla pariatur. Excepteur sint occaecat cupidatat non proident, sunt in culpa qui officia deserunt mollit anim id est laborum." style="text;spacingTop=-5;fillColor=#ffffff;whiteSpace=wrap;html=1;align=left;fontSize=14;fontFamily=Helvetica;fillColor=none;strokeColor=none;rounded=0;shadow=0;dashed=0;fontColor=#FEF15B;" parent="1" vertex="1">
          <mxGeometry x="515" y="400" width="535" height="130" as="geometry" />
        </mxCell>
        <mxCell id="55dd390204d0f602-9" value="" style="ellipse;whiteSpace=wrap;html=1;rounded=0;shadow=0;dashed=0;strokeColor=#FEF15B;strokeWidth=4;fillColor=none;gradientColor=none;fontFamily=Helvetica;fontSize=100;fontColor=#FFFFFF;align=center;" parent="1" vertex="1">
          <mxGeometry x="810" y="650" width="200" height="200" as="geometry" />
        </mxCell>
        <mxCell id="55dd390204d0f602-10" value="" style="ellipse;whiteSpace=wrap;html=1;rounded=0;shadow=0;dashed=0;strokeColor=none;strokeWidth=4;fillColor=#F49731;gradientColor=none;fontFamily=Helvetica;fontSize=100;fontColor=#FFFFFF;align=center;" parent="1" vertex="1">
          <mxGeometry x="825" y="665" width="170" height="170" as="geometry" />
        </mxCell>
        <mxCell id="55dd390204d0f602-11" value="" style="endArrow=none;html=1;dashed=1;dashPattern=1 1;labelBackgroundColor=none;strokeColor=#F49731;fontFamily=Helvetica;fontSize=100;fontColor=#FFFFFF;strokeWidth=16;" parent="1" edge="1">
          <mxGeometry width="50" height="50" relative="1" as="geometry">
            <mxPoint x="269.58823529411757" y="900" as="sourcePoint" />
            <mxPoint x="1029" y="900" as="targetPoint" />
          </mxGeometry>
        </mxCell>
        <mxCell id="55dd390204d0f602-12" value="STAGE 2" style="whiteSpace=wrap;html=1;rounded=0;shadow=0;dashed=0;strokeColor=none;strokeWidth=4;fillColor=#F49731;gradientColor=none;fontFamily=Helvetica;fontSize=30;fontColor=#FFFFFF;align=center;fontStyle=1" parent="1" vertex="1">
          <mxGeometry x="385" y="640" width="240" height="60" as="geometry" />
        </mxCell>
        <mxCell id="55dd390204d0f602-13" value="Lorem ipsum dolor sit amet, consectetur adipisicing elit, sed do eiusmod tempor incididunt ut labore et dolore magna aliqua. Ut enim ad minim veniam, quis nostrud exercitation ullamco laboris nisi ut aliquip ex ea commodo consequat. Duis aute irure dolor in reprehenderit in voluptate velit esse cillum dolore eu fugiat nulla pariatur. Excepteur sint occaecat cupidatat non proident, sunt in culpa qui officia deserunt mollit anim id est laborum." style="text;spacingTop=-5;fillColor=#ffffff;whiteSpace=wrap;html=1;align=left;fontSize=14;fontFamily=Helvetica;fillColor=none;strokeColor=none;rounded=0;shadow=0;dashed=0;fontColor=#FEF15B;" parent="1" vertex="1">
          <mxGeometry x="240" y="720" width="535" height="130" as="geometry" />
        </mxCell>
        <mxCell id="55dd390204d0f602-14" value="" style="ellipse;whiteSpace=wrap;html=1;rounded=0;shadow=0;dashed=0;strokeColor=#FEF15B;strokeWidth=4;fillColor=none;gradientColor=none;fontFamily=Helvetica;fontSize=100;fontColor=#FFFFFF;align=center;" parent="1" vertex="1">
          <mxGeometry x="255" y="970" width="200" height="200" as="geometry" />
        </mxCell>
        <mxCell id="55dd390204d0f602-15" value="" style="ellipse;whiteSpace=wrap;html=1;rounded=0;shadow=0;dashed=0;strokeColor=none;strokeWidth=4;fillColor=#F49731;gradientColor=none;fontFamily=Helvetica;fontSize=100;fontColor=#FFFFFF;align=center;" parent="1" vertex="1">
          <mxGeometry x="270" y="985" width="170" height="170" as="geometry" />
        </mxCell>
        <mxCell id="55dd390204d0f602-16" value="" style="endArrow=none;html=1;dashed=1;dashPattern=1 1;labelBackgroundColor=none;strokeColor=#F49731;fontFamily=Helvetica;fontSize=100;fontColor=#FFFFFF;strokeWidth=16;" parent="1" edge="1">
          <mxGeometry width="50" height="50" relative="1" as="geometry">
            <mxPoint x="264.58823529411757" y="1220.0000000000002" as="sourcePoint" />
            <mxPoint x="1024" y="1220.0000000000002" as="targetPoint" />
          </mxGeometry>
        </mxCell>
        <mxCell id="55dd390204d0f602-17" value="STAGE 3" style="whiteSpace=wrap;html=1;rounded=0;shadow=0;dashed=0;strokeColor=none;strokeWidth=4;fillColor=#F49731;gradientColor=none;fontFamily=Helvetica;fontSize=30;fontColor=#FFFFFF;align=center;fontStyle=1" parent="1" vertex="1">
          <mxGeometry x="655" y="960" width="240" height="60" as="geometry" />
        </mxCell>
        <mxCell id="55dd390204d0f602-18" value="Lorem ipsum dolor sit amet, consectetur adipisicing elit, sed do eiusmod tempor incididunt ut labore et dolore magna aliqua. Ut enim ad minim veniam, quis nostrud exercitation ullamco laboris nisi ut aliquip ex ea commodo consequat. Duis aute irure dolor in reprehenderit in voluptate velit esse cillum dolore eu fugiat nulla pariatur. Excepteur sint occaecat cupidatat non proident, sunt in culpa qui officia deserunt mollit anim id est laborum." style="text;spacingTop=-5;fillColor=#ffffff;whiteSpace=wrap;html=1;align=left;fontSize=14;fontFamily=Helvetica;fillColor=none;strokeColor=none;rounded=0;shadow=0;dashed=0;fontColor=#FEF15B;" parent="1" vertex="1">
          <mxGeometry x="510" y="1040" width="535" height="130" as="geometry" />
        </mxCell>
        <mxCell id="55dd390204d0f602-19" value="" style="ellipse;whiteSpace=wrap;html=1;rounded=0;shadow=0;dashed=0;strokeColor=#FEF15B;strokeWidth=4;fillColor=none;gradientColor=none;fontFamily=Helvetica;fontSize=100;fontColor=#FFFFFF;align=center;" parent="1" vertex="1">
          <mxGeometry x="805" y="1290" width="200" height="200" as="geometry" />
        </mxCell>
        <mxCell id="55dd390204d0f602-20" value="" style="ellipse;whiteSpace=wrap;html=1;rounded=0;shadow=0;dashed=0;strokeColor=none;strokeWidth=4;fillColor=#F49731;gradientColor=none;fontFamily=Helvetica;fontSize=100;fontColor=#FFFFFF;align=center;" parent="1" vertex="1">
          <mxGeometry x="820" y="1305" width="170" height="170" as="geometry" />
        </mxCell>
        <mxCell id="55dd390204d0f602-22" value="STAGE 4" style="whiteSpace=wrap;html=1;rounded=0;shadow=0;dashed=0;strokeColor=none;strokeWidth=4;fillColor=#F49731;gradientColor=none;fontFamily=Helvetica;fontSize=30;fontColor=#FFFFFF;align=center;fontStyle=1" parent="1" vertex="1">
          <mxGeometry x="380" y="1280" width="240" height="60" as="geometry" />
        </mxCell>
        <mxCell id="55dd390204d0f602-23" value="Lorem ipsum dolor sit amet, consectetur adipisicing elit, sed do eiusmod tempor incididunt ut labore et dolore magna aliqua. Ut enim ad minim veniam, quis nostrud exercitation ullamco laboris nisi ut aliquip ex ea commodo consequat. Duis aute irure dolor in reprehenderit in voluptate velit esse cillum dolore eu fugiat nulla pariatur. Excepteur sint occaecat cupidatat non proident, sunt in culpa qui officia deserunt mollit anim id est laborum." style="text;spacingTop=-5;fillColor=#ffffff;whiteSpace=wrap;html=1;align=left;fontSize=14;fontFamily=Helvetica;fillColor=none;strokeColor=none;rounded=0;shadow=0;dashed=0;fontColor=#FEF15B;" parent="1" vertex="1">
          <mxGeometry x="235" y="1360" width="535" height="130" as="geometry" />
        </mxCell>
        <mxCell id="55dd390204d0f602-24" value="" style="shape=mxgraph.signs.transportation.anchor_2;html=1;fillColor=#FFFFFF;strokeColor=none;verticalLabelPosition=bottom;verticalAlign=top;align=center;rounded=0;shadow=0;dashed=0;fontFamily=Helvetica;fontSize=14;fontColor=#FEF15B;" parent="1" vertex="1">
          <mxGeometry x="308" y="380" width="94" height="98" as="geometry" />
        </mxCell>
        <mxCell id="55dd390204d0f602-25" value="" style="shape=mxgraph.signs.transportation.airplane_3;html=1;fillColor=#FFFFFF;strokeColor=none;verticalLabelPosition=bottom;verticalAlign=top;align=center;rounded=0;shadow=0;dashed=0;fontFamily=Helvetica;fontSize=14;fontColor=#FEF15B;" parent="1" vertex="1">
          <mxGeometry x="861" y="701" width="97" height="98" as="geometry" />
        </mxCell>
        <mxCell id="55dd390204d0f602-26" value="" style="shape=mxgraph.signs.transportation.train_2;html=1;fillColor=#FFFFFF;strokeColor=none;verticalLabelPosition=bottom;verticalAlign=top;align=center;rounded=0;shadow=0;dashed=0;fontFamily=Helvetica;fontSize=14;fontColor=#FEF15B;" parent="1" vertex="1">
          <mxGeometry x="322" y="1020" width="66" height="99" as="geometry" />
        </mxCell>
        <mxCell id="55dd390204d0f602-27" value="" style="shape=mxgraph.signs.transportation.taxi;html=1;fillColor=#FFFFFF;strokeColor=none;verticalLabelPosition=bottom;verticalAlign=top;align=center;rounded=0;shadow=0;dashed=0;fontFamily=Helvetica;fontSize=14;fontColor=#FEF15B;" parent="1" vertex="1">
          <mxGeometry x="856" y="1343" width="98" height="94" as="geometry" />
        </mxCell>
        <mxCell id="Y0xqredO9Q3Y6XEq_Lwh-2" value="" style="rounded=0;whiteSpace=wrap;html=1;fillColor=#f5f5f5;strokeColor=#666666;fontColor=#333333;" vertex="1" parent="1">
          <mxGeometry x="182" y="1650" width="188" height="310" as="geometry" />
        </mxCell>
        <mxCell id="Y0xqredO9Q3Y6XEq_Lwh-7" value="" style="group" vertex="1" connectable="0" parent="1">
          <mxGeometry x="182" y="1650" width="188" height="50" as="geometry" />
        </mxCell>
        <mxCell id="Y0xqredO9Q3Y6XEq_Lwh-3" value="" style="rounded=0;whiteSpace=wrap;html=1;" vertex="1" parent="Y0xqredO9Q3Y6XEq_Lwh-7">
          <mxGeometry width="188" height="50" as="geometry" />
        </mxCell>
        <mxCell id="Y0xqredO9Q3Y6XEq_Lwh-4" value="" style="ellipse;whiteSpace=wrap;html=1;aspect=fixed;fillColor=#f8cecc;strokeColor=#b85450;" vertex="1" parent="Y0xqredO9Q3Y6XEq_Lwh-7">
          <mxGeometry x="8" y="5" width="40" height="40" as="geometry" />
        </mxCell>
        <mxCell id="Y0xqredO9Q3Y6XEq_Lwh-5" value="张三" style="text;html=1;strokeColor=none;fillColor=none;align=center;verticalAlign=middle;whiteSpace=wrap;rounded=0;" vertex="1" parent="Y0xqredO9Q3Y6XEq_Lwh-7">
          <mxGeometry x="58" y="5" width="40" height="20" as="geometry" />
        </mxCell>
        <mxCell id="Y0xqredO9Q3Y6XEq_Lwh-6" value="你好" style="text;html=1;strokeColor=none;fillColor=none;align=center;verticalAlign=middle;whiteSpace=wrap;rounded=0;" vertex="1" parent="Y0xqredO9Q3Y6XEq_Lwh-7">
          <mxGeometry x="58" y="25" width="40" height="20" as="geometry" />
        </mxCell>
        <mxCell id="Y0xqredO9Q3Y6XEq_Lwh-8" value="" style="group" vertex="1" connectable="0" parent="1">
          <mxGeometry x="182" y="1700" width="188" height="50" as="geometry" />
        </mxCell>
        <mxCell id="Y0xqredO9Q3Y6XEq_Lwh-9" value="" style="rounded=0;whiteSpace=wrap;html=1;" vertex="1" parent="Y0xqredO9Q3Y6XEq_Lwh-8">
          <mxGeometry width="188" height="50" as="geometry" />
        </mxCell>
        <mxCell id="Y0xqredO9Q3Y6XEq_Lwh-10" value="" style="ellipse;whiteSpace=wrap;html=1;aspect=fixed;fillColor=#d5e8d4;strokeColor=#82b366;" vertex="1" parent="Y0xqredO9Q3Y6XEq_Lwh-8">
          <mxGeometry x="8" y="5" width="40" height="40" as="geometry" />
        </mxCell>
        <mxCell id="Y0xqredO9Q3Y6XEq_Lwh-11" value="李四" style="text;html=1;strokeColor=none;fillColor=none;align=center;verticalAlign=middle;whiteSpace=wrap;rounded=0;" vertex="1" parent="Y0xqredO9Q3Y6XEq_Lwh-8">
          <mxGeometry x="58" y="5" width="40" height="20" as="geometry" />
        </mxCell>
        <mxCell id="Y0xqredO9Q3Y6XEq_Lwh-12" value="你好" style="text;html=1;strokeColor=none;fillColor=none;align=center;verticalAlign=middle;whiteSpace=wrap;rounded=0;" vertex="1" parent="Y0xqredO9Q3Y6XEq_Lwh-8">
          <mxGeometry x="58" y="25" width="40" height="20" as="geometry" />
        </mxCell>
        <mxCell id="Y0xqredO9Q3Y6XEq_Lwh-13" value="" style="group;fillColor=#fff2cc;strokeColor=#d6b656;" vertex="1" connectable="0" parent="1">
          <mxGeometry x="182" y="1750" width="188" height="50" as="geometry" />
        </mxCell>
        <mxCell id="Y0xqredO9Q3Y6XEq_Lwh-14" value="" style="rounded=0;whiteSpace=wrap;html=1;" vertex="1" parent="Y0xqredO9Q3Y6XEq_Lwh-13">
          <mxGeometry width="188" height="50" as="geometry" />
        </mxCell>
        <mxCell id="Y0xqredO9Q3Y6XEq_Lwh-15" value="" style="ellipse;whiteSpace=wrap;html=1;aspect=fixed;fillColor=#fff2cc;strokeColor=#d6b656;" vertex="1" parent="Y0xqredO9Q3Y6XEq_Lwh-13">
          <mxGeometry x="8" y="5" width="40" height="40" as="geometry" />
        </mxCell>
        <mxCell id="Y0xqredO9Q3Y6XEq_Lwh-16" value="坦白说" style="text;html=1;strokeColor=none;fillColor=none;align=center;verticalAlign=middle;whiteSpace=wrap;rounded=0;" vertex="1" parent="Y0xqredO9Q3Y6XEq_Lwh-13">
          <mxGeometry x="64" y="15" width="40" height="20" as="geometry" />
        </mxCell>
        <mxCell id="Y0xqredO9Q3Y6XEq_Lwh-18" value="" style="group" vertex="1" connectable="0" parent="1">
          <mxGeometry x="182" y="1800" width="188" height="50" as="geometry" />
        </mxCell>
        <mxCell id="Y0xqredO9Q3Y6XEq_Lwh-19" value="" style="rounded=0;whiteSpace=wrap;html=1;" vertex="1" parent="Y0xqredO9Q3Y6XEq_Lwh-18">
          <mxGeometry width="188" height="50" as="geometry" />
        </mxCell>
        <mxCell id="Y0xqredO9Q3Y6XEq_Lwh-20" value="9916" style="ellipse;whiteSpace=wrap;html=1;aspect=fixed;fillColor=#dae8fc;strokeColor=#6c8ebf;" vertex="1" parent="Y0xqredO9Q3Y6XEq_Lwh-18">
          <mxGeometry x="8" y="5" width="40" height="40" as="geometry" />
        </mxCell>
        <mxCell id="Y0xqredO9Q3Y6XEq_Lwh-21" value="扩列消息" style="text;html=1;strokeColor=none;fillColor=none;align=center;verticalAlign=middle;whiteSpace=wrap;rounded=0;" vertex="1" parent="Y0xqredO9Q3Y6XEq_Lwh-18">
          <mxGeometry x="63" y="15" width="52" height="20" as="geometry" />
        </mxCell>
        <mxCell id="Y0xqredO9Q3Y6XEq_Lwh-23" value="" style="group" vertex="1" connectable="0" parent="1">
          <mxGeometry x="182" y="1850" width="188" height="50" as="geometry" />
        </mxCell>
        <mxCell id="Y0xqredO9Q3Y6XEq_Lwh-24" value="" style="rounded=0;whiteSpace=wrap;html=1;" vertex="1" parent="Y0xqredO9Q3Y6XEq_Lwh-23">
          <mxGeometry width="188" height="50" as="geometry" />
        </mxCell>
        <mxCell id="Y0xqredO9Q3Y6XEq_Lwh-25" value="" style="ellipse;whiteSpace=wrap;html=1;aspect=fixed;fillColor=#f8cecc;strokeColor=#b85450;" vertex="1" parent="Y0xqredO9Q3Y6XEq_Lwh-23">
          <mxGeometry x="8" y="5" width="40" height="40" as="geometry" />
        </mxCell>
        <mxCell id="Y0xqredO9Q3Y6XEq_Lwh-26" value="张三" style="text;html=1;strokeColor=none;fillColor=none;align=center;verticalAlign=middle;whiteSpace=wrap;rounded=0;" vertex="1" parent="Y0xqredO9Q3Y6XEq_Lwh-23">
          <mxGeometry x="58" y="5" width="40" height="20" as="geometry" />
        </mxCell>
        <mxCell id="Y0xqredO9Q3Y6XEq_Lwh-27" value="你好" style="text;html=1;strokeColor=none;fillColor=none;align=center;verticalAlign=middle;whiteSpace=wrap;rounded=0;" vertex="1" parent="Y0xqredO9Q3Y6XEq_Lwh-23">
          <mxGeometry x="58" y="25" width="40" height="20" as="geometry" />
        </mxCell>
        <mxCell id="Y0xqredO9Q3Y6XEq_Lwh-30" value="" style="rounded=0;whiteSpace=wrap;html=1;fillColor=#f5f5f5;strokeColor=#666666;fontColor=#333333;" vertex="1" parent="1">
          <mxGeometry x="450" y="1650" width="188" height="310" as="geometry" />
        </mxCell>
        <mxCell id="Y0xqredO9Q3Y6XEq_Lwh-31" value="" style="group" vertex="1" connectable="0" parent="1">
          <mxGeometry x="450" y="1650" width="188" height="50" as="geometry" />
        </mxCell>
        <mxCell id="Y0xqredO9Q3Y6XEq_Lwh-32" value="" style="rounded=0;whiteSpace=wrap;html=1;" vertex="1" parent="Y0xqredO9Q3Y6XEq_Lwh-31">
          <mxGeometry width="188" height="50" as="geometry" />
        </mxCell>
        <mxCell id="Y0xqredO9Q3Y6XEq_Lwh-33" value="" style="ellipse;whiteSpace=wrap;html=1;aspect=fixed;fillColor=#f8cecc;strokeColor=#b85450;" vertex="1" parent="Y0xqredO9Q3Y6XEq_Lwh-31">
          <mxGeometry x="8" y="5" width="40" height="40" as="geometry" />
        </mxCell>
        <mxCell id="Y0xqredO9Q3Y6XEq_Lwh-34" value="二毛" style="text;html=1;strokeColor=none;fillColor=none;align=center;verticalAlign=middle;whiteSpace=wrap;rounded=0;" vertex="1" parent="Y0xqredO9Q3Y6XEq_Lwh-31">
          <mxGeometry x="58" y="5" width="40" height="20" as="geometry" />
        </mxCell>
        <mxCell id="Y0xqredO9Q3Y6XEq_Lwh-35" value="你好" style="text;html=1;strokeColor=none;fillColor=none;align=center;verticalAlign=middle;whiteSpace=wrap;rounded=0;" vertex="1" parent="Y0xqredO9Q3Y6XEq_Lwh-31">
          <mxGeometry x="58" y="25" width="40" height="20" as="geometry" />
        </mxCell>
        <mxCell id="Y0xqredO9Q3Y6XEq_Lwh-36" value="" style="group" vertex="1" connectable="0" parent="1">
          <mxGeometry x="450" y="1700" width="188" height="50" as="geometry" />
        </mxCell>
        <mxCell id="Y0xqredO9Q3Y6XEq_Lwh-37" value="" style="rounded=0;whiteSpace=wrap;html=1;" vertex="1" parent="Y0xqredO9Q3Y6XEq_Lwh-36">
          <mxGeometry width="188" height="50" as="geometry" />
        </mxCell>
        <mxCell id="Y0xqredO9Q3Y6XEq_Lwh-38" value="" style="ellipse;whiteSpace=wrap;html=1;aspect=fixed;fillColor=#d5e8d4;strokeColor=#82b366;" vertex="1" parent="Y0xqredO9Q3Y6XEq_Lwh-36">
          <mxGeometry x="8" y="5" width="40" height="40" as="geometry" />
        </mxCell>
        <mxCell id="Y0xqredO9Q3Y6XEq_Lwh-39" value="三毛" style="text;html=1;strokeColor=none;fillColor=none;align=center;verticalAlign=middle;whiteSpace=wrap;rounded=0;" vertex="1" parent="Y0xqredO9Q3Y6XEq_Lwh-36">
          <mxGeometry x="58" y="5" width="40" height="20" as="geometry" />
        </mxCell>
        <mxCell id="Y0xqredO9Q3Y6XEq_Lwh-40" value="你好" style="text;html=1;strokeColor=none;fillColor=none;align=center;verticalAlign=middle;whiteSpace=wrap;rounded=0;" vertex="1" parent="Y0xqredO9Q3Y6XEq_Lwh-36">
          <mxGeometry x="58" y="25" width="40" height="20" as="geometry" />
        </mxCell>
        <mxCell id="Y0xqredO9Q3Y6XEq_Lwh-49" value="" style="group" vertex="1" connectable="0" parent="1">
          <mxGeometry x="450" y="1751" width="188" height="50" as="geometry" />
        </mxCell>
        <mxCell id="Y0xqredO9Q3Y6XEq_Lwh-50" value="" style="rounded=0;whiteSpace=wrap;html=1;" vertex="1" parent="Y0xqredO9Q3Y6XEq_Lwh-49">
          <mxGeometry width="188" height="50" as="geometry" />
        </mxCell>
        <mxCell id="Y0xqredO9Q3Y6XEq_Lwh-51" value="" style="ellipse;whiteSpace=wrap;html=1;aspect=fixed;fillColor=#f8cecc;strokeColor=#b85450;" vertex="1" parent="Y0xqredO9Q3Y6XEq_Lwh-49">
          <mxGeometry x="8" y="5" width="40" height="40" as="geometry" />
        </mxCell>
        <mxCell id="Y0xqredO9Q3Y6XEq_Lwh-52" value="乌空" style="text;html=1;strokeColor=none;fillColor=none;align=center;verticalAlign=middle;whiteSpace=wrap;rounded=0;" vertex="1" parent="Y0xqredO9Q3Y6XEq_Lwh-49">
          <mxGeometry x="58" y="5" width="40" height="20" as="geometry" />
        </mxCell>
        <mxCell id="Y0xqredO9Q3Y6XEq_Lwh-53" value="你好" style="text;html=1;strokeColor=none;fillColor=none;align=center;verticalAlign=middle;whiteSpace=wrap;rounded=0;" vertex="1" parent="Y0xqredO9Q3Y6XEq_Lwh-49">
          <mxGeometry x="58" y="25" width="40" height="20" as="geometry" />
        </mxCell>
        <mxCell id="Y0xqredO9Q3Y6XEq_Lwh-54" style="edgeStyle=orthogonalEdgeStyle;rounded=0;orthogonalLoop=1;jettySize=auto;html=1;entryX=0;entryY=0.5;entryDx=0;entryDy=0;" edge="1" parent="1" source="Y0xqredO9Q3Y6XEq_Lwh-19" target="Y0xqredO9Q3Y6XEq_Lwh-37">
          <mxGeometry relative="1" as="geometry" />
        </mxCell>
      </root>
    </mxGraphModel>
  </diagram>
</mxfile>
